<?xml version="1.0" encoding="utf-8"?>
<!-- Generator: Adobe Illustrator 23.0.1, SVG Export Plug-In . SVG Version: 6.00 Build 0)  -->
<svg version="1.1" xmlns="http://www.w3.org/2000/svg" xmlns:xlink="http://www.w3.org/1999/xlink" x="0px" y="0px"
	 viewBox="0 0 1500 500" style="enable-background:new 0 0 1500 500;" xml:space="preserve">
<style type="text/css">
	.st0{fill:#1E1C24;}
	.st1{fill:#2CB678;}
	.st2{fill:#010101;}
	.st3{fill:#F8D2AF;}
	.st4{fill:#533613;}
	.st5{fill:#2ADB7E;}
	.st6{fill:#5CD89F;}
	.st7{fill:#332B3B;}
	.st8{fill:#302533;}
	.st9{fill:none;stroke:url(#SVGID_1_);stroke-miterlimit:10;}
	.st10{fill:none;stroke:url(#SVGID_2_);stroke-miterlimit:10;}
	.st11{fill:url(#kolko_1_);}
	.st12{fill:#E6E6E6;}
	.st13{opacity:0.25;fill:#999999;enable-background:new    ;}
	.st14{fill:none;stroke:#1E1C24;stroke-miterlimit:10;}
	.st15{fill:#3CD387;}
	.st16{fill:#FFFFFF;}
</style>
<g id="Warstwa_2">
	<rect class="st0" width="1500" height="500"/>
	<g transform="translate(-443.482 -42.002)">
		<path class="st1" d="M1757.1,706.9l-0.2,6.8l-0.1,2.9l-0.1,2l-0.1,2.9l-0.2,4.3h11.8l0.1-4.3l0.1-2.9l0.1-2v-2.9l0.2-8.5
			L1757.1,706.9z"/>
		<path class="st1" d="M1663.4,706.9l-0.2,6.8l-0.1,2.9l-0.1,2l-0.1,2.9l-0.1,4.3h11.8l0.1-4.3l0.1-2.9l0.1-2l0.1-2.9l0.2-8.5
			L1663.4,706.9z"/>
		<path class="st2" d="M1756.5,725.8c-0.4,3.9-5.4,5.8-8.4,6.3h-0.1c-1.1,0.3-1.8,1.4-1.5,2.5c0.2,0.9,1.1,1.6,2,1.6
			c3.9,0.1,11.1,0.1,14.1-0.1c4.1-0.2,4.9-2.9,4.9-2.9l0.8-7.5L1756.5,725.8L1756.5,725.8z"/>
		<path class="st2" d="M1662.5,725.8c-0.4,3.9-5.4,5.8-8.4,6.3h-0.1c-1.1,0.3-1.8,1.4-1.5,2.5c0.2,0.9,1.1,1.6,2,1.6
			c3.9,0.1,11.1,0.1,14.1-0.1c4.1-0.2,4.9-2.9,4.9-2.9l0.8-7.5L1662.5,725.8L1662.5,725.8z"/>
		<path class="st3" d="M1779,201c4.2-4,7.3-9,9.1-14.5c4.8-13.8,1.3-27.6-7.9-30.6c-9.1-3.1-20.4,5.7-25.2,19.5
			c-4.6,13.1-1.6,26.2,6.6,30.1c1.4,4.8,5,17.4,2.9,21.3l26.9-14C1791.2,212.8,1781.8,207,1779,201z"/>
		<path class="st4" d="M1756.1,161.7c4.8,3.3,17.7,6.1,21.2,12.3c3.4,6.2,1.8,11.5,4.2,13.5c1.4,1.2,3,2.2,4.6,3.1
			c0,0,18.2-21.5,5.6-32.6c-12.6-11-15.4-3.8-20.1-8.3c-4.1-3.9-7.4-9.8-7.9-13.7c-0.2-1.1-1.1-1.8-2.2-1.7
			c-2.1,0.1-5.3,1.4-7.3,6.5C1750.9,149.3,1751.4,158.5,1756.1,161.7z"/>
		<path class="st5" d="M1747.4,237.1c-12.8,21.8-22.8,45.1-29.9,69.3c-14.3,49-23.8,103.7-23.8,103.7l121.3,5.9
			c8.4-25.9,9.1-73.7,9.1-73.7c5.6-104.1-33.5-130.6-33.5-130.6l-27.2,3l-6.6,8.4C1753.5,227.6,1750.3,232.3,1747.4,237.1z"/>
		<path class="st6" d="M1747.5,288.3c2.6-3,31.2-65.1,56.8-53.8c25.6,11.2,1.4,92.8,1.4,92.8L1747.5,288.3z"/>
		<path class="st7" d="M1766,504c0,0,10.5-7.7,25.3-27.2c6.3-8.4,11.2-18.6,14.9-28.2l-36.5,135.6l0.4,123c0,1.4-1.1,2.5-2.5,2.5
			l-9.1-0.1c-1.1,0-2.1-0.8-2.4-1.9l-32.3-122.2l-1.4-14.6L1766,504z"/>
		<path class="st8" d="M1704.2,409.5l-11.2-0.4l-32.3,176.7l1,119.6c0,2,1.7,3.7,3.7,3.7h7.4c1.7,0,3.2-1.2,3.6-2.8l29.1-110.4
			l60.3-91.9c0,0,10.5-7.7,25.3-27.2c18.2-24.2,24.4-63.2,24.4-63.2L1704.2,409.5z"/>
		<path class="st3" d="M1805.7,327.2c-10.3,47.2-103.6,107.8-103.6,107.8l1-14.4c10.8-4.2,44.4-132.4,44.4-132.4L1805.7,327.2z"/>
		<path class="st7" d="M1693,409.1l11.2,0.4c-6.2,19.5,5.8,41.7,5.5,42.4c-6.7,12-18.8,17.7-28.2,20.4L1693,409.1z"/>
	</g>
	<g>
		<g id="Warstwa_3">
			<g id="strzalki">
				
					<linearGradient id="SVGID_1_" gradientUnits="userSpaceOnUse" x1="471.1465" y1="470.4533" x2="481.7071" y2="470.4533" gradientTransform="matrix(-1 0 0 -1 1951.5 499.89)">
					<stop  offset="0" style="stop-color:#5CD89F"/>
					<stop  offset="1" style="stop-color:#2ADB7E"/>
				</linearGradient>
				<polyline class="st9" points="1480,19.9 1470.5,29.4 1480,38.9 				"/>
				
					<linearGradient id="SVGID_2_" gradientUnits="userSpaceOnUse" x1="481.1465" y1="470.4533" x2="491.7071" y2="470.4533" gradientTransform="matrix(-1 0 0 -1 1951.5 499.89)">
					<stop  offset="0" style="stop-color:#5CD89F"/>
					<stop  offset="1" style="stop-color:#2ADB7E"/>
				</linearGradient>
				<polyline class="st10" points="1470,19.9 1460.5,29.4 1470,38.9 				"/>
			</g>
			<g transform="translate(0.000000,1280.000000) scale(0.100000,-0.100000)">
				<path class="st6" d="M157,13156c-10.9,3-25.1-0.6-33.1-8.3c-15.4-14.8-9.8-43.7,10.3-51.8c15-6,34.3,0.4,41.6,13.8
					c5.1,9.4,4.5,22.9-1.2,32.6C171,13148.3,163.4,13154.2,157,13156z"/>
				<path class="st6" d="M266.1,13083.9c-15.7,4.3-33.9-3.8-39.7-17.9c-4.7-11.4-1.6-26.9,7-35.6c14.2-14.3,41.8-10.4,51.5,7.3
					c5.1,9.4,4.5,22.9-1.2,32.6C280.2,13076.3,272.6,13082.1,266.1,13083.9z"/>
				<path class="st6" d="M375.3,13011.9c-10.9,3-25.1-0.6-33.1-8.3c-15.4-14.8-9.8-43.7,10.3-51.8c15-6,34.3,0.4,41.6,13.8
					c5.1,9.4,4.5,22.9-1.2,32.6C389.4,13004.1,381.7,13010.1,375.3,13011.9z"/>
				<path class="st6" d="M484.4,12939.8c-10.9,3-25.1-0.6-33.1-8.3c-15.4-14.8-9.8-43.7,10.3-51.8c15-6,34.3,0.4,41.6,13.8
					c5.1,9.4,4.5,22.9-1.2,32.6C498.5,12932.1,490.9,12937.9,484.4,12939.8z"/>
				<path class="st6" d="M593.6,12867.7c-10.9,3-25.1-0.6-33.1-8.3c-15.4-14.8-9.8-43.7,10.3-51.8c15-6,34.3,0.4,41.6,13.8
					c5.1,9.4,4.5,22.9-1.2,32.6C607.7,12860,600.1,12865.9,593.6,12867.7z"/>
				<path class="st6" d="M702.8,12795.6c-10.9,3-25.1-0.6-33.1-8.3c-15.4-14.8-9.8-43.7,10.3-51.8c15-6,34.3,0.4,41.6,13.8
					c5.1,9.4,4.5,22.9-1.2,32.6C716.8,12787.9,709.2,12793.8,702.8,12795.6z"/>
				<path class="st6" d="M811.9,12723.5c-10.9,3-25.1-0.6-33.1-8.3c-15.4-14.8-9.8-43.7,10.3-51.8c15-6,34.3,0.4,41.6,13.8
					c5.1,9.4,4.5,22.9-1.2,32.6C826,12715.8,818.3,12721.7,811.9,12723.5z"/>
				<path class="st6" d="M921.2,12651.4c-10.9,3-25.1-0.6-33.1-8.3c-15.4-14.8-9.8-43.7,10.3-51.8c15-6,34.3,0.4,41.6,13.8
					c5.1,9.4,4.5,22.9-1.2,32.6C935.2,12643.7,927.6,12649.6,921.2,12651.4z"/>
				<path class="st6" d="M1030.3,12579.3c-10.9,3-25.1-0.6-33.1-8.3c-8.8-8.4-11.2-22.2-6.2-34.8c4.9-12.2,15.2-19.1,28.6-19.3
					c21.8-0.1,36.5,17.1,32.3,37.7C1049.5,12566.8,1041,12576.4,1030.3,12579.3z"/>
				<path class="st6" d="M1139.4,12507.2c-10.9,3-25.1-0.6-33.1-8.3c-8.8-8.4-11.2-22.2-6.2-34.8c4.9-12.2,15.2-19.1,28.6-19.3
					c21.8-0.1,36.5,17.1,32.3,37.7C1158.6,12494.7,1150.1,12504.3,1139.4,12507.2z"/>
				<path class="st6" d="M83.6,13048.7c-10.9,3-25.1-0.6-33.1-8.3c-15.4-14.8-9.8-43.7,10.3-51.8c15-6,34.3,0.4,41.6,13.8
					c5.1,9.4,4.5,22.9-1.2,32.6C97.6,13041,90,13046.9,83.6,13048.7z"/>
				<path class="st6" d="M192.7,12976.6c-15.7,4.3-33.9-3.8-39.7-17.9c-4.7-11.4-1.6-26.9,7-35.6c14.2-14.3,41.8-10.4,51.5,7.3
					c5.1,9.4,4.5,22.9-1.2,32.6C206.8,12968.9,199.2,12974.8,192.7,12976.6z"/>
				<path class="st6" d="M301.9,12904.5c-10.9,3-25.1-0.6-33.1-8.3c-15.4-14.8-9.8-43.7,10.3-51.8c15-6,34.3,0.4,41.6,13.8
					c5.1,9.4,4.5,22.9-1.2,32.6C316,12896.8,308.3,12902.7,301.9,12904.5z"/>
				<path class="st6" d="M411,12832.5c-10.9,3-25.1-0.6-33.1-8.3c-15.4-14.8-9.8-43.7,10.3-51.8c15-6,34.3,0.4,41.6,13.8
					c5.1,9.4,4.5,22.9-1.2,32.6C425.1,12824.7,417.5,12830.6,411,12832.5z"/>
				<path class="st6" d="M520.2,12760.3c-10.9,3-25.1-0.6-33.1-8.3c-15.4-14.8-9.8-43.7,10.3-51.8c15-6,34.3,0.4,41.6,13.8
					c5.1,9.4,4.5,22.9-1.2,32.6C534.3,12752.7,526.7,12758.5,520.2,12760.3z"/>
				<path class="st6" d="M629.4,12688.3c-10.9,3-25.1-0.6-33.1-8.3c-15.4-14.8-9.8-43.7,10.3-51.8c15-6,34.3,0.4,41.6,13.8
					c5.1,9.4,4.5,22.9-1.2,32.6C643.4,12680.6,635.8,12686.5,629.4,12688.3z"/>
				<path class="st6" d="M738.5,12616.2c-10.9,3-25.1-0.6-33.1-8.3c-15.4-14.8-9.8-43.7,10.3-51.8c15-6,34.3,0.4,41.6,13.8
					c5.1,9.4,4.5,22.9-1.2,32.6C752.6,12608.5,744.9,12614.4,738.5,12616.2z"/>
				<path class="st6" d="M847.7,12544.1c-10.9,3-25.1-0.6-33.1-8.3c-15.4-14.8-9.8-43.7,10.3-51.8c15-6,34.3,0.4,41.6,13.8
					c5.1,9.4,4.5,22.9-1.2,32.6C861.8,12536.4,854.2,12542.3,847.7,12544.1z"/>
				<path class="st6" d="M956.9,12472c-10.9,3-25.1-0.6-33.1-8.3c-8.8-8.4-11.2-22.2-6.2-34.8c4.9-12.2,15.2-19.1,28.6-19.3
					c21.8-0.1,36.5,17.1,32.3,37.7C976.1,12459.4,967.6,12469,956.9,12472z"/>
				<path class="st6" d="M1066,12399.9c-10.9,3-25.1-0.6-33.1-8.3c-8.8-8.4-11.2-22.2-6.2-34.8c4.9-12.2,15.2-19.1,28.6-19.3
					c21.8-0.1,36.5,17.1,32.3,37.7C1085.2,12387.4,1076.7,12397,1066,12399.9z"/>
				<path class="st6" d="M10.2,12941.4c-10.9,3-25.1-0.6-33.1-8.3c-15.4-14.8-9.8-43.7,10.3-51.8c15-6,34.3,0.4,41.6,13.8
					c5.1,9.4,4.5,22.9-1.2,32.6C24.3,12933.8,16.7,12939.6,10.2,12941.4z"/>
				<path class="st6" d="M119.4,12869.4c-10.9,3-25.1-0.6-33.1-8.3c-15.4-14.8-9.8-43.7,10.3-51.8c15-6,34.3,0.4,41.6,13.8
					c5.1,9.4,4.5,22.9-1.2,32.6C133.4,12861.7,125.8,12867.6,119.4,12869.4z"/>
				<path class="st6" d="M228.5,12797.3c-10.9,3-25.1-0.6-33.1-8.3c-15.4-14.8-9.8-43.7,10.3-51.8c15-6,34.3,0.4,41.6,13.8
					c5.1,9.4,4.5,22.9-1.2,32.6C242.6,12789.6,234.9,12795.5,228.5,12797.3z"/>
				<path class="st6" d="M337.7,12725.2c-10.9,3-25.1-0.6-33.1-8.3c-15.4-14.8-9.8-43.7,10.3-51.8c15-6,34.3,0.4,41.6,13.8
					c5.1,9.4,4.5,22.9-1.2,32.6C351.8,12717.5,344.2,12723.4,337.7,12725.2z"/>
				<path class="st6" d="M446.9,12653.1c-10.9,3-25.1-0.6-33.1-8.3c-15.4-14.8-9.8-43.7,10.3-51.8c15-6,34.3,0.4,41.6,13.8
					c5.1,9.4,4.5,22.9-1.2,32.6C460.9,12645.4,453.3,12651.3,446.9,12653.1z"/>
				<path class="st6" d="M556,12581c-10.9,3-25.1-0.6-33.1-8.3c-15.4-14.8-9.8-43.7,10.3-51.8c15-6,34.3,0.4,41.6,13.8
					c5.1,9.4,4.5,22.9-1.2,32.6C570.1,12573.3,562.5,12579.2,556,12581z"/>
				<path class="st6" d="M665.2,12509c-10.9,3-25.1-0.6-33.1-8.3c-15.4-14.8-9.8-43.7,10.3-51.8c15-6,34.3,0.4,41.6,13.8
					c5.1,9.4,4.5,22.9-1.2,32.6C679.3,12501.2,671.6,12507.1,665.2,12509z"/>
				<path class="st6" d="M774.4,12436.8c-10.9,3-25.1-0.6-33.1-8.3c-15.4-14.8-9.8-43.7,10.3-51.8c15-6,34.3,0.4,41.6,13.8
					c5.1,9.4,4.5,22.9-1.2,32.6C788.4,12429.1,780.8,12435,774.4,12436.8z"/>
				<path class="st6" d="M883.5,12364.8c-10.9,3-25.1-0.6-33.1-8.3c-15.4-14.8-9.8-43.7,10.3-51.8c15-6,34.3,0.4,41.6,13.8
					c5.1,9.4,4.5,22.9-1.2,32.6C897.6,12357.1,890,12362.9,883.5,12364.8z"/>
				<path class="st6" d="M992.7,12292.7c-10.9,3-25.1-0.6-33.1-8.3c-15.4-14.8-9.8-43.7,10.3-51.8c15-6,34.3,0.4,41.6,13.8
					c5.1,9.4,4.5,22.9-1.2,32.6C1006.7,12285,999.1,12290.9,992.7,12292.7z"/>
				<path class="st6" d="M-63.1,12834.2c-10.9,3-25.1-0.6-33.1-8.3c-15.4-14.8-9.8-43.7,10.3-51.8c15-6,34.3,0.4,41.6,13.8
					c5.1,9.4,4.5,22.9-1.2,32.6C-49.1,12826.5-56.7,12832.4-63.1,12834.2z"/>
				<path class="st6" d="M46,12762.1c-10.9,3-25.1-0.6-33.1-8.3c-15.4-14.8-9.8-43.7,10.3-51.8c15-6,34.3,0.4,41.6,13.8
					c5.1,9.4,4.5,22.9-1.2,32.6C60.1,12754.4,52.5,12760.3,46,12762.1z"/>
				<path class="st6" d="M155.2,12690.1c-10.9,3-25.1-0.6-33.1-8.3c-15.4-14.8-9.8-43.7,10.3-51.8c15-6,34.3,0.4,41.6,13.8
					c5.1,9.4,4.5,22.9-1.2,32.6C169.3,12682.3,161.6,12688.2,155.2,12690.1z"/>
				<path class="st6" d="M264.3,12618c-10.9,3-25.1-0.6-33.1-8.3c-15.4-14.8-9.8-43.7,10.3-51.8c15-6,34.3,0.4,41.6,13.8
					c5.1,9.4,4.5,22.9-1.2,32.6C278.4,12610.2,270.8,12616.1,264.3,12618z"/>
				<path class="st6" d="M373.5,12545.9c-10.9,3-25.1-0.6-33.1-8.3c-15.4-14.8-9.8-43.7,10.3-51.8c15-6,34.3,0.4,41.6,13.8
					c5.1,9.4,4.5,22.9-1.2,32.6C387.6,12538.2,380,12544,373.5,12545.9z"/>
				<path class="st6" d="M482.7,12473.8c-10.9,3-25.1-0.6-33.1-8.3c-15.4-14.8-9.8-43.7,10.3-51.8c15-6,34.3,0.4,41.6,13.8
					c5.1,9.4,4.5,22.9-1.2,32.6C496.7,12466.1,489.1,12472,482.7,12473.8z"/>
				<path class="st6" d="M591.8,12401.7c-10.9,3-25.1-0.6-33.1-8.3c-15.4-14.8-9.8-43.7,10.3-51.8c15-6,34.3,0.4,41.6,13.8
					c5.1,9.4,4.5,22.9-1.2,32.6C605.9,12394,598.2,12399.9,591.8,12401.7z"/>
				<path class="st6" d="M701,12329.6c-10.9,3-25.1-0.6-33.1-8.3c-15.4-14.8-9.8-43.7,10.3-51.8c15-6,34.3,0.4,41.6,13.8
					c5.1,9.4,4.5,22.9-1.2,32.6C715.1,12321.9,707.5,12327.8,701,12329.6z"/>
				<path class="st6" d="M810.2,12257.5c-10.9,3-25.1-0.6-33.1-8.3c-15.4-14.8-9.8-43.7,10.3-51.8c15-6,34.3,0.4,41.6,13.8
					c5.1,9.4,4.5,22.9-1.2,32.6C824.2,12249.8,816.6,12255.7,810.2,12257.5z"/>
				<path class="st6" d="M919.3,12185.4c-10.9,3-25.1-0.6-33.1-8.3c-15.4-14.8-9.8-43.7,10.3-51.8c15-6,34.3,0.4,41.6,13.8
					c5.1,9.4,4.5,22.9-1.2,32.6C933.4,12177.8,925.8,12183.6,919.3,12185.4z"/>
				<path class="st6" d="M-136.5,12726.9c-10.9,3-25.1-0.6-33.1-8.3c-15.4-14.8-9.8-43.7,10.3-51.8c15-6,34.3,0.4,41.6,13.8
					c5.1,9.4,4.5,22.9-1.2,32.6C-122.4,12719.3-130,12725.2-136.5,12726.9z"/>
				<path class="st6" d="M-27.4,12654.8c-10.9,3-25.1-0.6-33.1-8.3c-15.4-14.8-9.8-43.7,10.3-51.8c15-6,34.3,0.4,41.6,13.8
					c5.1,9.4,4.5,22.9-1.2,32.6C-13.3,12647.2-20.9,12653.1-27.4,12654.8z"/>
				<path class="st6" d="M81.8,12582.7c-10.9,3-25.1-0.6-33.1-8.3c-15.4-14.8-9.8-43.7,10.3-51.8c15-6,34.3,0.4,41.6,13.8
					c5.1,9.4,4.5,22.9-1.2,32.6C95.9,12575.1,88.3,12581,81.8,12582.7z"/>
				<path class="st6" d="M190.9,12510.7c-10.9,3-25.1-0.6-33.1-8.3c-15.4-14.8-9.8-43.7,10.3-51.8c15-6,34.3,0.4,41.6,13.8
					c5.1,9.4,4.5,22.9-1.2,32.6C205.1,12503,197.5,12508.9,190.9,12510.7z"/>
				<path class="st6" d="M300.1,12438.5c-10.9,3-25.1-0.6-33.1-8.3c-15.4-14.8-9.8-43.7,10.3-51.8c15-6,34.3,0.4,41.6,13.8
					c5.1,9.4,4.5,22.9-1.2,32.6C314.2,12430.9,306.6,12436.8,300.1,12438.5z"/>
				<path class="st6" d="M409.3,12366.5c-10.9,3-25.1-0.6-33.1-8.3c-15.4-14.8-9.8-43.7,10.3-51.8c15-6,34.3,0.4,41.6,13.8
					c5.1,9.4,4.5,22.9-1.2,32.6C423.4,12358.9,415.8,12364.7,409.3,12366.5z"/>
				<path class="st6" d="M518.4,12294.4c-10.9,3-25.1-0.6-33.1-8.3c-15.4-14.8-9.8-43.7,10.3-51.8c15-6,34.3,0.4,41.6,13.8
					c5.1,9.4,4.5,22.9-1.2,32.6C532.6,12286.7,524.9,12292.7,518.4,12294.4z"/>
				<path class="st6" d="M627.6,12222.3c-10.9,3-25.1-0.6-33.1-8.3c-15.4-14.8-9.8-43.7,10.3-51.8c15-6,34.3,0.4,41.6,13.8
					c5.1,9.4,4.5,22.9-1.2,32.6C641.7,12214.7,634.1,12220.5,627.6,12222.3z"/>
				<path class="st6" d="M736.8,12150.2c-10.9,3-25.1-0.6-33.1-8.3c-15.4-14.8-9.8-43.7,10.3-51.8c15-6,34.3,0.4,41.6,13.8
					c5.1,9.4,4.5,22.9-1.2,32.6C750.9,12142.6,743.3,12148.5,736.8,12150.2z"/>
				<path class="st6" d="M845.9,12078.1c-10.9,3-25.1-0.6-33.1-8.3c-15.4-14.8-9.8-43.7,10.3-51.8c15-6,34.3,0.4,41.6,13.8
					c5.1,9.4,4.5,22.9-1.2,32.6C860,12070.5,852.4,12076.4,845.9,12078.1z"/>
				<path class="st6" d="M-209.9,12619.6c-10.9,3-25.1-0.6-33.1-8.3c-15.4-14.8-9.8-43.7,10.3-51.8c15-6,34.3,0.4,41.6,13.8
					c5.1,9.4,4.5,22.9-1.2,32.6C-195.8,12612-203.4,12617.8-209.9,12619.6z"/>
				<path class="st6" d="M-100.7,12547.6c-10.9,3-25.1-0.6-33.1-8.3c-15.4-14.8-9.8-43.7,10.3-51.8c15-6,34.3,0.4,41.6,13.8
					c5.1,9.4,4.5,22.9-1.2,32.6C-86.7,12539.9-94.3,12545.8-100.7,12547.6z"/>
				<path class="st6" d="M8.4,12475.5c-10.9,3-25.1-0.6-33.1-8.3c-15.4-14.8-9.8-43.7,10.3-51.8c15-6,34.3,0.4,41.6,13.8
					c5.1,9.4,4.5,22.9-1.2,32.6C22.5,12467.8,14.8,12473.7,8.4,12475.5z"/>
				<path class="st6" d="M117.6,12403.4c-10.9,3-25.1-0.6-33.1-8.3c-15.4-14.8-9.8-43.7,10.3-51.8c15-6,34.3,0.4,41.6,13.8
					c5.1,9.4,4.5,22.9-1.2,32.6C131.7,12395.7,124.1,12401.6,117.6,12403.4z"/>
				<path class="st6" d="M226.8,12331.3c-10.9,3-25.1-0.6-33.1-8.3c-15.4-14.8-9.8-43.7,10.3-51.8c15-6,34.3,0.4,41.6,13.8
					c5.1,9.4,4.5,22.9-1.2,32.6C240.8,12323.6,233.2,12329.5,226.8,12331.3z"/>
				<path class="st6" d="M335.9,12259.2c-10.9,3-25.1-0.6-33.1-8.3c-15.4-14.8-9.8-43.7,10.3-51.8c15-6,34.3,0.4,41.6,13.8
					c5.1,9.4,4.5,22.9-1.2,32.6C350,12251.5,342.4,12257.4,335.9,12259.2z"/>
				<path class="st6" d="M445.1,12187.1c-10.9,3-25.1-0.6-33.1-8.3c-15.4-14.8-9.8-43.7,10.3-51.8c15-6,34.3,0.4,41.6,13.8
					c5.1,9.4,4.5,22.9-1.2,32.6C459.2,12179.4,451.5,12185.3,445.1,12187.1z"/>
				<path class="st6" d="M554.3,12115c-10.9,3-25.1-0.6-33.1-8.3c-15.4-14.8-9.8-43.7,10.3-51.8c15-6,34.3,0.4,41.6,13.8
					c5.1,9.4,4.5,22.9-1.2,32.6C568.3,12107.3,560.7,12113.2,554.3,12115z"/>
				<path class="st6" d="M663.4,12042.9c-10.9,3-25.1-0.6-33.1-8.3c-15.4-14.8-9.8-43.7,10.3-51.8c15-6,34.3,0.4,41.6,13.8
					c5.1,9.4,4.5,22.9-1.2,32.6C677.5,12035.3,669.9,12041.1,663.4,12042.9z"/>
				<path class="st6" d="M772.6,11970.9c-10.9,3-25.1-0.6-33.1-8.3c-15.4-14.8-9.8-43.7,10.3-51.8c15-6,34.3,0.4,41.6,13.8
					c5.1,9.4,4.5,22.9-1.2,32.6C786.6,11963.2,779,11969.1,772.6,11970.9z"/>
				<path class="st6" d="M-283.2,12512.4c-10.9,3-25.1-0.6-33.1-8.3c-15.4-14.8-9.8-43.7,10.3-51.8c15-6,34.3,0.4,41.6,13.8
					c5.1,9.4,4.5,22.9-1.2,32.6C-269.2,12504.7-276.8,12510.6-283.2,12512.4z"/>
				<path class="st6" d="M-174.1,12440.3c-10.9,3-25.1-0.6-33.1-8.3c-15.4-14.8-9.8-43.7,10.3-51.8c15-6,34.3,0.4,41.6,13.8
					c5.1,9.4,4.5,22.9-1.2,32.6C-160,12432.6-167.6,12438.5-174.1,12440.3z"/>
				<path class="st6" d="M-64.9,12368.3c-10.9,3-25.1-0.6-33.1-8.3c-8.8-8.4-11.2-22.2-6.2-34.8c4.9-12.2,15.2-19.1,28.6-19.3
					c21.8-0.1,36.5,17.1,32.3,37.7C-45.6,12355.6-54.2,12365.3-64.9,12368.3z"/>
				<path class="st6" d="M44.2,12296.2c-10.9,3-25.1-0.6-33.1-8.3c-8.8-8.4-11.2-22.2-6.2-34.8c4.9-12.2,15.2-19.1,28.6-19.3
					c21.8-0.1,36.5,17.1,32.3,37.7C63.5,12283.6,55,12293.2,44.2,12296.2z"/>
				<path class="st6" d="M153.4,12224c-15.7,4.3-33.9-3.8-39.7-17.9c-4.7-11.4-1.6-26.9,7.1-35.7c14.1-14.3,41.8-10.3,51.4,7.4
					c5.1,9.4,4.5,22.9-1.2,32.6C167.5,12216.4,159.9,12222.2,153.4,12224z"/>
				<path class="st6" d="M262.6,12152c-15.7,4.3-33.9-3.8-39.7-17.9c-4.7-11.4-1.6-26.9,7.1-35.7c14.1-14.3,41.8-10.3,51.4,7.4
					c5.1,9.4,4.5,22.9-1.2,32.6C276.6,12144.3,269,12150.2,262.6,12152z"/>
				<path class="st6" d="M371.7,12079.9c-15.7,4.3-33.9-3.8-39.7-17.9c-4.7-11.4-1.6-26.9,7.1-35.7c14.1-14.3,41.8-10.3,51.4,7.4
					c5.1,9.4,4.5,22.9-1.2,32.6C385.8,12072.2,378.1,12078.1,371.7,12079.9z"/>
				<path class="st6" d="M480.9,12007.8c-15.7,4.3-33.9-3.8-39.7-17.9c-4.7-11.4-1.6-26.9,7.1-35.7c14.1-14.3,41.8-10.3,51.4,7.4
					c5.1,9.4,4.5,22.9-1.2,32.6C495,12000.1,487.4,12006,480.9,12007.8z"/>
				<path class="st6" d="M590.1,11935.7c-10.9,3-25.1-0.6-33.1-8.3c-15.4-14.8-9.8-43.7,10.3-51.8c15-6,34.3,0.4,41.6,13.8
					c5.1,9.4,4.5,22.9-1.2,32.6C604.1,11928,596.5,11933.9,590.1,11935.7z"/>
				<path class="st6" d="M699.2,11863.6c-10.9,3-25.1-0.6-33.1-8.3c-15.4-14.8-9.8-43.7,10.3-51.8c15-6,34.3,0.4,41.6,13.8
					c5.1,9.4,4.5,22.9-1.2,32.6C713.3,11855.9,705.6,11861.8,699.2,11863.6z"/>
				<path class="st6" d="M-356.6,12405.2c-10.9,3-25.1-0.6-33.1-8.3c-15.4-14.8-9.8-43.7,10.3-51.8c15-6,34.3,0.4,41.6,13.8
					c5.1,9.4,4.5,22.9-1.2,32.6C-342.5,12397.5-350.1,12403.3-356.6,12405.2z"/>
				<path class="st6" d="M-247.4,12333.1c-10.9,3-25.1-0.6-33.1-8.3c-15.4-14.8-9.8-43.7,10.3-51.8c15-6,34.3,0.4,41.6,13.8
					c5.1,9.4,4.5,22.9-1.2,32.6C-233.4,12325.4-241,12331.3-247.4,12333.1z"/>
				<path class="st6" d="M-138.3,12261c-10.9,3-25.1-0.6-33.1-8.3c-8.8-8.4-11.2-22.2-6.2-34.8c4.9-12.2,15.2-19.1,28.6-19.3
					c21.8-0.1,36.5,17.1,32.3,37.7C-119,12248.4-127.6,12258.1-138.3,12261z"/>
				<path class="st6" d="M-29.1,12188.9c-10.9,3-25.1-0.6-33.1-8.3c-8.8-8.4-11.2-22.2-6.2-34.8c4.9-12.2,15.2-19.1,28.6-19.3
					c21.8-0.1,36.5,17.1,32.3,37.7C-9.8,12176.3-18.3,12185.9-29.1,12188.9z"/>
				<path class="st6" d="M80.1,12116.8c-15.7,4.3-33.9-3.8-39.7-17.9c-4.7-11.4-1.6-26.9,7.1-35.7c14.1-14.3,41.8-10.3,51.4,7.4
					c5.1,9.4,4.5,22.9-1.2,32.6C94.1,12109.1,86.5,12115,80.1,12116.8z"/>
				<path class="st6" d="M189.2,12044.7c-15.7,4.3-33.9-3.8-39.7-17.9c-4.7-11.4-1.6-26.9,7.1-35.7c14.1-14.3,41.8-10.3,51.4,7.4
					c5.1,9.4,4.5,22.9-1.2,32.6C203.3,12037.1,195.7,12042.9,189.2,12044.7z"/>
				<path class="st6" d="M298.4,11972.7c-15.7,4.3-33.9-3.8-39.7-17.9c-4.7-11.4-1.6-26.9,7.1-35.7c14.1-14.3,41.8-10.3,51.4,7.4
					c5.1,9.4,4.5,22.9-1.2,32.6C312.5,11964.9,304.8,11970.9,298.4,11972.7z"/>
				<path class="st6" d="M407.6,11900.5c-15.7,4.3-33.9-3.8-39.7-17.9c-4.7-11.4-1.6-26.9,7.1-35.7c14.1-14.3,41.8-10.3,51.4,7.4
					c5.1,9.4,4.5,22.9-1.2,32.6C421.6,11892.9,414,11898.7,407.6,11900.5z"/>
				<path class="st6" d="M516.7,11828.5c-10.9,3-25.1-0.6-33.1-8.3c-15.4-14.8-9.8-43.7,10.3-51.8c15-6,34.3,0.4,41.6,13.8
					c5.1,9.4,4.5,22.9-1.2,32.6C530.8,11820.8,523.2,11826.6,516.7,11828.5z"/>
				<path class="st6" d="M625.9,11756.4c-10.9,3-25.1-0.6-33.1-8.3c-15.4-14.8-9.8-43.7,10.3-51.8c15-6,34.3,0.4,41.6,13.8
					c5.1,9.4,4.5,22.9-1.2,32.6C639.9,11748.7,632.3,11754.6,625.9,11756.4z"/>
				<path class="st6" d="M-430,12297.8c-10.9,3-25.1-0.6-33.1-8.3c-15.4-14.8-9.8-43.7,10.3-51.8c15-6,34.3,0.4,41.6,13.8
					c5.1,9.4,4.5,22.9-1.2,32.6C-415.9,12290.1-423.5,12296.1-430,12297.8z"/>
				<path class="st6" d="M-320.8,12225.8c-10.9,3-25.1-0.6-33.1-8.3c-15.4-14.8-9.8-43.7,10.3-51.8c15-6,34.3,0.4,41.6,13.8
					c5.1,9.4,4.5,22.9-1.2,32.6C-306.8,12218.1-314.3,12224-320.8,12225.8z"/>
				<path class="st6" d="M-211.7,12153.7c-10.9,3-25.1-0.6-33.1-8.3c-8.8-8.4-11.2-22.2-6.2-34.8c4.9-12.2,15.2-19.1,28.6-19.3
					c21.8-0.1,36.5,17.1,32.3,37.7C-192.4,12141.1-200.9,12150.8-211.7,12153.7z"/>
				<path class="st6" d="M-102.5,12081.6c-10.9,3-25.1-0.6-33.1-8.3c-8.8-8.4-11.2-22.2-6.2-34.8c4.9-12.2,15.2-19.1,28.6-19.3
					c21.8-0.1,36.5,17.1,32.3,37.7C-83.2,12069-91.7,12078.7-102.5,12081.6z"/>
				<path class="st6" d="M6.7,12009.5c-10.9,3-25.1-0.6-33.1-8.3c-15.4-14.8-9.8-43.7,10.3-51.8c15-6,34.3,0.4,41.6,13.8
					c5.1,9.4,4.5,22.9-1.2,32.6C20.7,12001.8,13.2,12007.8,6.7,12009.5z"/>
				<path class="st6" d="M115.8,11937.4c-10.9,3-25.1-0.6-33.1-8.3c-15.4-14.8-9.8-43.7,10.3-51.8c15-6,34.3,0.4,41.6,13.8
					c5.1,9.4,4.5,22.9-1.2,32.6C129.9,11929.7,122.3,11935.7,115.8,11937.4z"/>
				<path class="st6" d="M225,11865.3c-10.9,3-25.1-0.6-33.1-8.3c-15.4-14.8-9.8-43.7,10.3-51.8c15-6,34.3,0.4,41.6,13.8
					c5.1,9.4,4.5,22.9-1.2,32.6C239.1,11857.6,231.4,11863.6,225,11865.3z"/>
				<path class="st6" d="M334.2,11793.2c-10.9,3-25.1-0.6-33.1-8.3c-15.4-14.8-9.8-43.7,10.3-51.8c15-6,34.3,0.4,41.6,13.8
					c5.1,9.4,4.5,22.9-1.2,32.6C348.2,11785.5,340.7,11791.5,334.2,11793.2z"/>
				<path class="st6" d="M443.3,11721.1c-10.9,3-25.1-0.6-33.1-8.3c-15.4-14.8-9.8-43.7,10.3-51.8c15-6,34.3,0.4,41.6,13.8
					c5.1,9.4,4.5,22.9-1.2,32.6C457.4,11713.5,449.8,11719.4,443.3,11721.1z"/>
				<path class="st6" d="M552.5,11649.1c-10.9,3-25.1-0.6-33.1-8.3c-15.4-14.8-9.8-43.7,10.3-51.8c15-6,34.3,0.4,41.6,13.8
					c5.1,9.4,4.5,22.9-1.2,32.6C566.5,11641.4,559,11647.3,552.5,11649.1z"/>
			</g>
		</g>
		
			<linearGradient id="kolko_1_" gradientUnits="userSpaceOnUse" x1="-91.95" y1="60.459" x2="85.05" y2="60.459" gradientTransform="matrix(1 0 0 -1 0 499.89)">
			<stop  offset="0" style="stop-color:#5CD89F"/>
			<stop  offset="1" style="stop-color:#2ADB7E"/>
		</linearGradient>
		<circle id="kolko" class="st11" cx="-3.4" cy="439.4" r="88.5"/>
		<rect id="biurko" x="-0.6" y="439.4" class="st7" width="623" height="94"/>
		<g id="doniczka">
			<path class="st6" d="M146.4,373.8c0,0,10,6,13,50h-15.2C144.2,423.8,139.4,377.8,146.4,373.8z"/>
			<path class="st5" d="M159.4,360.8c0,0,10.7,8,6.9,63H151C151,423.8,149.4,364.8,159.4,360.8z"/>
			<rect x="137.4" y="423.8" class="st8" width="35" height="35"/>
		</g>
		<path class="st7" d="M1459.4,280.9c77.4,24,120,108.8,95,189.5s-108,126.9-185.5,102.9L1459.4,280.9z"/>
		<path class="st12" d="M50.4,478c0,0,20-5,32-6s29-9,30-13s1-8-4-9s-19,5-24,8s-20,11-25,11c0,0-10,7-20,7s-26-5-26-21
			c0,0,2-12,10-12c0,0,2-35,50-33c0,0,30-4,41,22s7,34-6,46s-30,17-45,16s-16-12-16-12S47.4,480,50.4,478z"/>
		<g id="uszy">
			<g>
				<g>
					<path class="st13" d="M15.4,450c3-7,11-7,11-7l-7-11L15.4,450z"/>
				</g>
				<path class="st13" d="M61.4,452c-3-7-9-8-9-8l8-11L61.4,452z"/>
			</g>
		</g>
		<g id="oczy_nos">
			<path class="st14" d="M21.4,460c0,0,4,4,9,1"/>
			<path class="st14" d="M43.3,460.7c0,0,6,3.4,9.6-1.2"/>
			<path class="st14" d="M37.9,466.5c0,2,0,2,0,2"/>
		</g>
		<rect x="403.2" y="445.8" class="st5" width="96" height="10"/>
		<rect x="499.2" y="445.8" class="st15" width="110" height="10"/>
		<polygon class="st6" points="520.2,363.8 653.2,363.8 609.2,445.8 478.1,445.8 		"/>
		<g id="zasieg">
			<polyline class="st7" points="-38.4,67.6 -26.4,67.8 -26.8,111.7 -38.6,101.7 			"/>
			<polyline class="st7" points="-15.4,67.6 -3.4,67.8 -3.8,133.7 -15.6,123.7 			"/>
			<polyline class="st7" points="6.6,67.6 18.6,67.8 18.2,158.7 6.4,148.7 			"/>
			<polyline class="st7" points="29.6,67.6 41.6,67.8 41.1,179.7 29.4,169.7 			"/>
			<polyline class="st7" points="50.6,67.6 62.6,67.8 62.6,201.4 50.9,191.4 			"/>
			<polyline class="st7" points="-62.6,67.7 -50.6,67.7 -50.6,88.7 -62.6,77.7 			"/>
		</g>
	</g>
</g>
<g id="Warstwa_1">
	<g>
		<g>
			<path class="st16" d="M510.7,214.1h-9.3V189c0-2.7,0.1-5.7,0.4-9h-0.2c-0.5,2.6-0.9,4.4-1.3,5.6l-9.8,28.6h-7.7l-10-28.3
				c-0.3-0.8-0.7-2.7-1.3-5.9H471c0.3,4.1,0.4,7.8,0.4,10.9v23.2h-8.5v-42h13.9l8.6,24.9c0.7,2,1.2,4,1.5,6h0.2
				c0.5-2.3,1.1-4.3,1.7-6.1l8.6-24.8h13.5V214.1z"/>
			<path class="st16" d="M529.7,214.1h-9.5v-42h9.5V214.1z"/>
			<path class="st16" d="M569.4,212.6c-3.1,1.5-7.1,2.2-12,2.2c-6.4,0-11.5-1.9-15.2-5.7c-3.7-3.8-5.5-8.8-5.5-15.1
				c0-6.7,2.1-12.2,6.2-16.3c4.1-4.2,9.5-6.3,16.2-6.3c4.1,0,7.6,0.5,10.4,1.6v9.1c-2.8-1.7-6-2.5-9.6-2.5c-3.9,0-7.1,1.2-9.6,3.7
				c-2.4,2.5-3.6,5.8-3.6,10.1c0,4.1,1.1,7.3,3.4,9.7c2.3,2.4,5.4,3.6,9.2,3.6c3.7,0,7.1-0.9,10.1-2.7V212.6z"/>
			<path class="st16" d="M613.1,214.1h-9.5V197h-17.4v17.1h-9.5v-42h9.5v16.8h17.4v-16.8h9.5V214.1z"/>
			<path class="st16" d="M659.6,214.1h-10.3l-3-9.3h-14.9l-3,9.3h-10.3l15.3-42h11.2L659.6,214.1z M644.2,197.5l-4.5-14.1
				c-0.3-1.1-0.6-2.3-0.7-3.8h-0.2c-0.1,1.2-0.3,2.5-0.7,3.7l-4.6,14.2H644.2z"/>
			<path class="st16" d="M689.9,214.1h-25v-13.7l-4.7,2.5v-7.7l4.7-2.5v-20.7h9.5v16.1l8.3-4.4v7.7l-8.3,4.4v10.6h15.6V214.1z"/>
			<path class="st16" d="M721.6,199.6v14.5h-9.5v-42h14.8c10.6,0,15.9,4.5,15.9,13.4c0,4.2-1.5,7.6-4.6,10.2
				c-3,2.6-7.1,3.9-12.2,3.9H721.6z M721.6,179.4v13.1h3.7c5,0,7.6-2.2,7.6-6.6c0-4.3-2.5-6.5-7.6-6.5H721.6z"/>
			<path class="st16" d="M766.7,214.8c-6,0-10.9-2-14.7-5.9c-3.8-3.9-5.7-9-5.7-15.3c0-6.6,1.9-12,5.8-16.1
				c3.8-4.1,8.9-6.2,15.3-6.2c6,0,10.8,2,14.5,5.9c3.7,3.9,5.6,9.1,5.6,15.5c0,6.6-1.9,11.9-5.8,16S772.9,214.8,766.7,214.8z
				 M767.1,179.5c-3.3,0-6,1.2-7.9,3.7c-2,2.5-2.9,5.8-2.9,9.9c0,4.2,1,7.5,2.9,9.9c2,2.4,4.5,3.6,7.7,3.6c3.3,0,5.8-1.2,7.8-3.5
				c1.9-2.4,2.9-5.6,2.9-9.8c0-4.4-0.9-7.7-2.8-10.2C772.9,180.8,770.4,179.5,767.1,179.5z"/>
			<path class="st16" d="M794.5,214.1v-42h14.9c14.9,0,22.4,6.8,22.4,20.5c0,6.5-2,11.8-6.1,15.7c-4.1,3.9-9.5,5.9-16.3,5.9H794.5z
				 M803.9,179.8v26.6h4.7c4.1,0,7.3-1.2,9.7-3.7s3.5-5.8,3.5-10c0-4-1.2-7.2-3.5-9.4c-2.3-2.3-5.6-3.4-9.7-3.4H803.9z"/>
			<path class="st16" d="M836.8,212.5v-9.4c1.7,1.4,3.5,2.5,5.5,3.2c2,0.7,4,1.1,6,1.1c1.2,0,2.2-0.1,3.1-0.3
				c0.9-0.2,1.6-0.5,2.2-0.9s1-0.8,1.3-1.3c0.3-0.5,0.4-1.1,0.4-1.7c0-0.8-0.2-1.6-0.7-2.2s-1.1-1.2-1.9-1.8
				c-0.8-0.5-1.8-1.1-2.9-1.6c-1.1-0.5-2.3-1-3.6-1.6c-3.3-1.4-5.7-3-7.3-5c-1.6-2-2.4-4.4-2.4-7.1c0-2.2,0.4-4.1,1.3-5.6
				c0.9-1.6,2.1-2.9,3.6-3.9c1.5-1,3.3-1.8,5.3-2.2c2-0.5,4.1-0.7,6.3-0.7c2.2,0,4.1,0.1,5.8,0.4s3.2,0.7,4.7,1.2v8.8
				c-0.7-0.5-1.5-0.9-2.3-1.3c-0.8-0.4-1.7-0.7-2.6-0.9c-0.9-0.2-1.8-0.4-2.6-0.5s-1.7-0.2-2.5-0.2c-1.1,0-2.1,0.1-2.9,0.3
				s-1.6,0.5-2.2,0.9c-0.6,0.4-1.1,0.8-1.4,1.3c-0.3,0.5-0.5,1.1-0.5,1.7c0,0.7,0.2,1.3,0.6,1.9s0.9,1.1,1.6,1.6s1.5,1,2.5,1.5
				c1,0.5,2.1,1,3.3,1.5c1.7,0.7,3.2,1.5,4.5,2.2s2.5,1.7,3.4,2.7s1.7,2.1,2.2,3.4c0.5,1.3,0.8,2.8,0.8,4.5c0,2.3-0.4,4.3-1.3,5.9
				c-0.9,1.6-2.1,2.9-3.6,3.9c-1.5,1-3.3,1.7-5.3,2.1s-4.2,0.6-6.4,0.6c-2.3,0-4.5-0.2-6.6-0.6S838.3,213.3,836.8,212.5z"/>
			<path class="st16" d="M881.8,214.1h-9.5v-42h9.5V214.1z"/>
			<path class="st16" d="M928.3,214.1H918l-3-9.3h-14.9l-3,9.3h-10.3l15.3-42h11.2L928.3,214.1z M912.8,197.5l-4.5-14.1
				c-0.3-1.1-0.6-2.3-0.7-3.8h-0.2c-0.1,1.2-0.3,2.5-0.7,3.7l-4.6,14.2H912.8z"/>
			<path class="st16" d="M933.5,214.1v-42h14.9c14.9,0,22.4,6.8,22.4,20.5c0,6.5-2,11.8-6.1,15.7c-4.1,3.9-9.5,5.9-16.3,5.9H933.5z
				 M943,179.8v26.6h4.7c4.1,0,7.3-1.2,9.7-3.7s3.5-5.8,3.5-10c0-4-1.2-7.2-3.5-9.4c-2.3-2.3-5.6-3.4-9.7-3.4H943z"/>
			<path class="st16" d="M1002.8,214.1h-25v-13.7L973,203v-7.7l4.7-2.5v-20.7h9.5v16.1l8.3-4.4v7.7l-8.3,4.4v10.6h15.6V214.1z"/>
			<path class="st16" d="M1037.1,172.1l-13.7,27.1v14.9h-9.5v-14.8l-13.3-27.2h10.8l6.8,15.7c0.1,0.3,0.4,1.4,1,3.4h0.1
				c0.3-1.4,0.6-2.5,0.9-3.3l6.9-15.8H1037.1z"/>
		</g>
		<g>
			<path class="st16" d="M455,253.5c0,3.8-0.9,6.6-2.6,8.6s-4.3,3-7.5,3c-1.5,0-2.8-0.3-4.1-0.8v-5.9c1.1,0.8,2.3,1.2,3.6,1.2
				c2.9,0,4.3-2.1,4.3-6.4v-16.6h6.3V253.5z"/>
			<path class="st16" d="M484,252.5c0,8.4-3.9,12.6-11.8,12.6c-7.6,0-11.4-4.1-11.4-12.3v-16.2h6.3v16.3c0,4.5,1.8,6.8,5.3,6.8
				c3.5,0,5.2-2.2,5.2-6.6v-16.5h6.3V252.5z"/>
			<path class="st16" d="M515.3,264.6h-6.4L497.3,247c-0.7-1-1.1-1.8-1.4-2.3h-0.1c0.1,1,0.2,2.5,0.2,4.5v15.4h-6v-28h6.8l11.1,17.1
				c0.5,0.8,1,1.5,1.4,2.3h0.1c-0.1-0.7-0.2-1.9-0.2-3.8v-15.5h6V264.6z"/>
			<path class="st16" d="M528,264.6h-6.3v-28h6.3V264.6z"/>
			<path class="st16" d="M546.2,265.1c-4,0-7.3-1.3-9.8-3.9c-2.5-2.6-3.8-6-3.8-10.2c0-4.4,1.3-8,3.8-10.7c2.6-2.7,6-4.1,10.2-4.1
				c4,0,7.2,1.3,9.7,3.9c2.5,2.6,3.7,6.1,3.7,10.4c0,4.4-1.3,7.9-3.8,10.6S550.3,265.1,546.2,265.1z M546.4,241.6
				c-2.2,0-4,0.8-5.3,2.5c-1.3,1.7-2,3.9-2,6.6c0,2.8,0.7,5,2,6.6c1.3,1.6,3,2.4,5.1,2.4c2.2,0,3.9-0.8,5.2-2.4
				c1.3-1.6,1.9-3.7,1.9-6.5c0-2.9-0.6-5.2-1.9-6.8C550.3,242.4,548.6,241.6,546.4,241.6z"/>
			<path class="st16" d="M588.2,264.6h-7.2l-4.4-7.2c-0.3-0.5-0.6-1-0.9-1.5c-0.3-0.4-0.6-0.8-0.9-1.1c-0.3-0.3-0.6-0.5-1-0.7
				s-0.7-0.2-1.1-0.2H571v10.7h-6.3v-28h10c6.8,0,10.2,2.5,10.2,7.6c0,1-0.1,1.9-0.4,2.7c-0.3,0.8-0.7,1.6-1.3,2.2s-1.2,1.2-2,1.7
				c-0.8,0.5-1.6,0.9-2.6,1.1v0.1c0.4,0.1,0.8,0.3,1.2,0.6s0.8,0.6,1.1,1c0.4,0.4,0.7,0.8,1,1.3s0.6,0.9,0.9,1.3L588.2,264.6z
				 M571,241.3v7.8h2.7c1.4,0,2.4-0.4,3.3-1.2c0.8-0.8,1.3-1.8,1.3-2.9c0-2.4-1.5-3.7-4.4-3.7H571z"/>
			<path class="st16" d="M618,241.7h-9.9v6.9h9.1v5.1h-9.1v10.9h-6.3v-28H618V241.7z"/>
			<path class="st16" d="M645.4,252.5c0,8.4-3.9,12.6-11.8,12.6c-7.6,0-11.4-4.1-11.4-12.3v-16.2h6.3v16.3c0,4.5,1.8,6.8,5.3,6.8
				c3.5,0,5.2-2.2,5.2-6.6v-16.5h6.3V252.5z"/>
			<path class="st16" d="M668.2,264.6h-16.7v-28h6.3v22.9h10.4V264.6z"/>
			<path class="st16" d="M688.7,264.6H672v-28h6.3v22.9h10.4V264.6z"/>
			<path class="st16" d="M702.7,256.1H692v-4.3h10.7V256.1z"/>
			<path class="st16" d="M707.3,263.5v-6.3c1.1,1,2.4,1.7,3.7,2.1s2.7,0.7,4,0.7c0.8,0,1.5-0.1,2.1-0.2c0.6-0.1,1.1-0.3,1.5-0.6
				c0.4-0.3,0.7-0.6,0.9-0.9s0.3-0.7,0.3-1.1c0-0.5-0.2-1-0.5-1.5c-0.3-0.4-0.7-0.8-1.3-1.2c-0.5-0.4-1.2-0.7-1.9-1.1
				s-1.5-0.7-2.4-1c-2.2-0.9-3.8-2-4.9-3.3s-1.6-2.9-1.6-4.8c0-1.5,0.3-2.7,0.9-3.8s1.4-1.9,2.4-2.6c1-0.7,2.2-1.2,3.5-1.5
				s2.7-0.5,4.2-0.5c1.5,0,2.8,0.1,3.9,0.3c1.1,0.2,2.2,0.4,3.1,0.8v5.8c-0.5-0.3-1-0.6-1.5-0.9c-0.6-0.2-1.1-0.5-1.7-0.6
				s-1.2-0.3-1.7-0.4c-0.6-0.1-1.1-0.1-1.7-0.1c-0.7,0-1.4,0.1-2,0.2s-1.1,0.3-1.5,0.6c-0.4,0.2-0.7,0.5-0.9,0.9
				c-0.2,0.3-0.3,0.7-0.3,1.2c0,0.5,0.1,0.9,0.4,1.3c0.2,0.4,0.6,0.7,1.1,1.1c0.5,0.3,1,0.7,1.7,1c0.7,0.3,1.4,0.6,2.2,1
				c1.1,0.5,2.1,1,3,1.5c0.9,0.5,1.7,1.1,2.3,1.8c0.6,0.7,1.1,1.4,1.5,2.3c0.3,0.9,0.5,1.8,0.5,3c0,1.6-0.3,2.9-0.9,3.9
				c-0.6,1.1-1.4,1.9-2.4,2.6s-2.2,1.1-3.5,1.4s-2.8,0.4-4.3,0.4c-1.5,0-3-0.1-4.4-0.4S708.3,264.1,707.3,263.5z"/>
			<path class="st16" d="M750.7,241.7h-8v22.9h-6.3v-22.9h-7.9v-5.1h22.3V241.7z"/>
			<path class="st16" d="M776.3,264.6h-6.9l-2-6.2h-10l-2,6.2h-6.8l10.2-28h7.5L776.3,264.6z M766,253.5l-3-9.4
				c-0.2-0.7-0.4-1.5-0.5-2.5h-0.2c-0.1,0.8-0.2,1.6-0.5,2.4l-3,9.5H766z"/>
			<path class="st16" d="M799.3,263.6c-2,1-4.7,1.5-8,1.5c-4.3,0-7.7-1.3-10.1-3.8s-3.7-5.9-3.7-10.1c0-4.5,1.4-8.1,4.2-10.9
				s6.4-4.2,10.8-4.2c2.7,0,5,0.3,6.9,1v6.1c-1.9-1.1-4-1.7-6.4-1.7c-2.6,0-4.8,0.8-6.4,2.5s-2.4,3.9-2.4,6.7c0,2.7,0.8,4.9,2.3,6.5
				c1.5,1.6,3.6,2.4,6.2,2.4c2.5,0,4.7-0.6,6.8-1.8V263.6z"/>
			<path class="st16" d="M827.4,264.6h-8l-8.2-12.2c-0.2-0.2-0.4-0.7-0.7-1.5h-0.1v13.7h-6.3v-28h6.3v13.2h0.1
				c0.2-0.4,0.4-0.9,0.8-1.6l7.7-11.7h7.5l-9.8,13.4L827.4,264.6z"/>
			<path class="st16" d="M841.2,264.6v-28h9.9c9.9,0,14.9,4.6,14.9,13.7c0,4.4-1.4,7.8-4.1,10.4s-6.3,3.9-10.8,3.9H841.2z
				 M847.5,241.7v17.8h3.1c2.7,0,4.9-0.8,6.4-2.5c1.6-1.6,2.3-3.9,2.3-6.7c0-2.7-0.8-4.8-2.3-6.3s-3.7-2.3-6.5-2.3H847.5z"/>
			<path class="st16" d="M887.4,264.6h-16.8v-28h16.2v5.1H877v6.2h9.2v5.1H877v6.4h10.5V264.6z"/>
			<path class="st16" d="M915.4,236.6l-9.6,28h-7.1l-9.5-28h6.8l5.8,19.5c0.3,1.1,0.5,2,0.6,2.8h0.1c0.1-0.9,0.3-1.8,0.6-2.9
				l5.8-19.4H915.4z"/>
			<path class="st16" d="M935.6,264.6h-16.8v-28H935v5.1h-9.8v6.2h9.2v5.1h-9.2v6.4h10.5V264.6z"/>
			<path class="st16" d="M956.8,264.6h-16.7v-28h6.3v22.9h10.4V264.6z"/>
			<path class="st16" d="M971.4,265.1c-4,0-7.3-1.3-9.8-3.9s-3.8-6-3.8-10.2c0-4.4,1.3-8,3.8-10.7s6-4.1,10.2-4.1
				c4,0,7.2,1.3,9.7,3.9s3.7,6.1,3.7,10.4c0,4.4-1.3,7.9-3.8,10.6S975.5,265.1,971.4,265.1z M971.7,241.6c-2.2,0-4,0.8-5.3,2.5
				s-2,3.9-2,6.6c0,2.8,0.7,5,2,6.6c1.3,1.6,3,2.4,5.1,2.4c2.2,0,3.9-0.8,5.2-2.4c1.3-1.6,1.9-3.7,1.9-6.5c0-2.9-0.6-5.2-1.9-6.8
				S973.8,241.6,971.7,241.6z"/>
			<path class="st16" d="M996.2,255v9.6h-6.3v-28h9.9c7.1,0,10.6,3,10.6,8.9c0,2.8-1,5.1-3,6.8c-2,1.7-4.7,2.6-8.1,2.6H996.2z
				 M996.2,241.4v8.7h2.5c3.4,0,5-1.5,5-4.4c0-2.9-1.7-4.3-5-4.3H996.2z"/>
			<path class="st16" d="M1031.3,264.6h-16.8v-28h16.2v5.1h-9.8v6.2h9.2v5.1h-9.2v6.4h10.5V264.6z"/>
			<path class="st16" d="M1059.2,264.6h-7.2l-4.4-7.2c-0.3-0.5-0.6-1-0.9-1.5c-0.3-0.4-0.6-0.8-0.9-1.1s-0.6-0.5-1-0.7
				s-0.7-0.2-1.1-0.2h-1.7v10.7h-6.3v-28h10c6.8,0,10.2,2.5,10.2,7.6c0,1-0.1,1.9-0.4,2.7s-0.7,1.6-1.3,2.2s-1.2,1.2-2,1.7
				c-0.8,0.5-1.6,0.9-2.6,1.1v0.1c0.4,0.1,0.8,0.3,1.2,0.6s0.8,0.6,1.1,1s0.7,0.8,1,1.3s0.6,0.9,0.9,1.3L1059.2,264.6z
				 M1042.1,241.3v7.8h2.7c1.4,0,2.4-0.4,3.3-1.2c0.8-0.8,1.3-1.8,1.3-2.9c0-2.4-1.5-3.7-4.4-3.7H1042.1z"/>
		</g>
	</g>
</g>
</svg>
